HIERARCHY
ROOT Hips
{
 OFFSET 0.000000 0.000000 0.000000
 CHANNELS 6 Xposition Yposition Zposition Yrotation Xrotation Zrotation
 JOINT Chest
 {
  OFFSET 0.000000 9.585900 0.002600
  CHANNELS 3 Yrotation Xrotation Zrotation
  JOINT Chest2
  {
   OFFSET 0.000000 9.601200 -0.005300
   CHANNELS 3 Yrotation Xrotation Zrotation
   JOINT Chest3
   {
    OFFSET 0.000000 9.561800 0.000000
    CHANNELS 3 Yrotation Xrotation Zrotation
    JOINT Chest4
    {
     OFFSET 0.000000 9.552100 0.000000
     CHANNELS 3 Yrotation Xrotation Zrotation
     JOINT Neck
     {
      OFFSET 0.000000 14.453000 0.000000
      CHANNELS 3 Yrotation Xrotation Zrotation
      JOINT Head
      {
       OFFSET 0.000000 8.936500 -0.011300
       CHANNELS 3 Yrotation Xrotation Zrotation
       End Site
       {
        OFFSET 0.000000 17.073600 -0.006000
       }
      }
     }
     JOINT RightCollar
     {
      OFFSET -2.921100 9.558500 0.000000
      CHANNELS 3 Yrotation Xrotation Zrotation
      JOINT RightShoulder
      {
       OFFSET -13.519700 0.000000 0.000000
       CHANNELS 3 Yrotation Xrotation Zrotation
       JOINT RightElbow
       {
        OFFSET 0.000000 -29.696600 0.000000
        CHANNELS 3 Yrotation Xrotation Zrotation
        JOINT RightWrist
        {
         OFFSET 0.000000 -24.004700 0.000000
         CHANNELS 3 Yrotation Xrotation Zrotation
         End Site
         {
          OFFSET 0.000000 -17.728500 0.000000
         }
        }
       }
      }
     }
     JOINT LeftCollar
     {
      OFFSET 2.921100 9.558500 0.000000
      CHANNELS 3 Yrotation Xrotation Zrotation
      JOINT LeftShoulder
      {
       OFFSET 13.519700 0.000000 0.000000
       CHANNELS 3 Yrotation Xrotation Zrotation
       JOINT LeftElbow
       {
        OFFSET 0.000000 -29.696600 0.000000
        CHANNELS 3 Yrotation Xrotation Zrotation
        JOINT LeftWrist
        {
         OFFSET 0.000000 -24.004700 0.000000
         CHANNELS 3 Yrotation Xrotation Zrotation
         End Site
         {
          OFFSET 0.000000 -17.728500 0.000000
         }
        }
       }
      }
     }
    }
   }
  }
 }
 JOINT RightHip
 {
  OFFSET -7.771700 -0.012900 -0.001300
  CHANNELS 3 Yrotation Xrotation Zrotation
  JOINT RightKnee
  {
   OFFSET 0.000000 -40.869800 0.001200
   CHANNELS 3 Yrotation Xrotation Zrotation
   JOINT RightAnkle
   {
    OFFSET 0.000000 -39.717900 0.002100
    CHANNELS 3 Yrotation Xrotation Zrotation
    JOINT RightToe
    {
     OFFSET 0.000000 -4.965400 11.033500
     CHANNELS 3 Yrotation Xrotation Zrotation
     End Site
     {
      OFFSET 0.000000 -1.423100 5.872300
     }
    }
   }
  }
 }
 JOINT LeftHip
 {
  OFFSET 7.771700 -0.012900 -0.001300
  CHANNELS 3 Yrotation Xrotation Zrotation
  JOINT LeftKnee
  {
   OFFSET 0.000000 -40.869800 0.001200
   CHANNELS 3 Yrotation Xrotation Zrotation
   JOINT LeftAnkle
   {
    OFFSET 0.000000 -39.717900 0.002100
    CHANNELS 3 Yrotation Xrotation Zrotation
    JOINT LeftToe
    {
     OFFSET 0.000000 -4.965400 11.033500
     CHANNELS 3 Yrotation Xrotation Zrotation
     End Site
     {
      OFFSET 0.000000 -1.423100 5.872300
     }
    }
   }
  }
 }
}
MOTION
Frames: 9
Frame Time: 0.008333
6.297010 49.639609 44.288256 173.311667 -34.754312 -7.862513 5.386539 18.460040 6.540591 0.637257 2.374511 0.636006 1.025540 3.850352 1.022221 4.866422 16.040037 4.861621 -1.561158 15.754049 1.544685 -3.473989 -6.438057 3.458027 -0.787418 -2.043877 -3.644582 4.920434 -3.955404 2.031539 88.396360 -81.428799 -99.784420 2.035745 -0.945074 9.568896 -9.187668 -0.428901 -0.574048 5.527141 -2.574745 -2.012354 -117.172426 -70.669540 133.644581 12.767728 3.371268 -23.123324 2.654054 -45.789157 9.831796 -108.611311 84.963476 -96.583220 -1.503061 -11.871219 -2.209790 -0.134505 0.772216 -0.045809 -11.067645 -49.583148 16.857172 -153.164245 80.363560 -159.619560 2.117545 -15.066635 6.530474 -0.211715 -1.117387 -0.041855
6.296925 49.661668 44.289468 173.316841 -34.739461 -7.837729 5.395070 18.474160 6.539514 0.626737 2.359634 0.624537 1.036863 3.862070 1.029738 4.888313 16.070703 4.873289 -1.593018 15.730376 1.544167 -3.495702 -6.437663 3.461269 -0.819499 -2.090028 -3.657635 4.900213 -3.955795 2.019310 88.801684 -81.223388 -100.267495 2.355123 -0.320786 10.244409 -9.222503 -0.467713 -0.594313 5.632485 -2.655186 -2.055860 -116.053952 -70.179829 132.749675 11.973894 4.082676 -24.500650 2.590813 -45.801566 9.817239 -108.904697 84.970118 -96.889373 -1.524137 -11.901619 -2.222623 -0.169034 0.763539 -0.071324 -11.029586 -49.602606 16.836370 -153.076924 80.366938 -159.545079 2.089059 -15.056063 6.540072 -0.203825 -1.119256 -0.032640
6.297881 49.681585 44.290449 173.329444 -34.726821 -7.819825 5.397741 18.484719 6.540107 0.616480 2.349435 0.613906 1.049129 3.869310 1.033242 4.901255 16.081986 4.873333 -1.613607 15.729649 1.551913 -3.520990 -6.428784 3.466208 -0.845435 -2.109198 -3.659076 4.869887 -3.955880 2.011012 89.039391 -80.908969 -100.593126 2.686918 0.356787 11.037952 -9.237463 -0.445209 -0.608190 5.734227 -2.772382 -2.099914 -114.941581 -69.658757 131.881456 11.057412 4.894673 -26.095483 2.548544 -45.813216 9.796579 -109.146379 84.959691 -97.125993 -1.558360 -11.938230 -2.236889 -0.183739 0.763581 -0.086273 -11.001570 -49.617035 16.826949 -153.024327 80.376724 -159.517571 2.060178 -15.048596 6.566062 -0.210810 -1.117274 -0.035121
6.300275 49.699178 44.291637 173.357042 -34.711471 -7.814578 5.386040 18.486915 6.536624 0.617927 2.351229 0.613560 1.055267 3.865964 1.030765 4.889701 16.079473 4.866990 -1.596452 15.777227 1.554441 -3.566923 -6.440469 3.485042 -0.837175 -2.093695 -3.669312 4.821091 -3.970702 2.019178 89.145146 -80.482927 -100.804274 3.047113 1.090788 11.947052 -9.201794 -0.342355 -0.606302 5.812422 -2.943645 -2.168521 -113.882172 -69.116629 131.082582 10.023904 5.784720 -27.935602 2.528600 -45.827051 9.761850 -109.352358 84.939190 -97.306366 -1.565242 -11.985192 -2.269829 -0.150883 0.777753 -0.078491 -10.991437 -49.629996 16.832760 -153.051628 80.397958 -159.582752 2.019296 -15.045668 6.619426 -0.236728 -1.108114 -0.057600
6.302649 49.715703 44.290686 173.382757 -34.708909 -7.801652 5.399558 18.496726 6.542592 0.598883 2.349200 0.605260 1.063964 3.865195 1.025312 4.875073 16.078880 4.864110 -1.603998 15.781810 1.555672 -3.592877 -6.403791 3.495139 -0.809102 -2.072103 -3.697702 4.732152 -3.972583 2.048319 89.337790 -79.968343 -101.098259 3.458327 1.885898 12.967019 -9.206750 -0.322019 -0.599478 5.940095 -3.023905 -2.240870 -112.945075 -68.570444 130.403059 8.869974 6.727389 -30.041170 2.481664 -45.822028 9.730301 -109.616721 84.931205 -97.569035 -1.526607 -12.032587 -2.315848 -0.108309 0.792297 -0.066878 -10.973911 -49.633131 16.807991 -153.077545 80.410984 -159.627471 1.992144 -15.049192 6.646147 -0.243076 -1.097954 -0.072824
6.310388 49.731385 44.289428 173.409784 -34.712411 -7.817009 5.385425 18.503655 6.548011 0.657157 2.362171 0.616666 1.034864 3.857880 1.016935 4.880974 16.082026 4.862693 -1.631152 15.781235 1.565365 -3.616601 -6.379392 3.503909 -0.841765 -2.082178 -3.690887 4.705339 -3.952738 2.041951 89.508338 -79.396097 -101.397193 3.939725 2.733156 14.101365 -9.235663 -0.305454 -0.580793 6.080627 -3.098976 -2.324879 -112.160600 -68.037169 129.851798 7.593727 7.690138 -32.399006 2.410536 -45.807768 9.741979 -109.794688 84.918785 -97.744310 -1.474669 -12.082656 -2.367157 -0.092060 0.818517 -0.053195 -10.988545 -49.626881 16.827290 -153.100345 80.417875 -159.670937 1.992071 -15.061830 6.663890 -0.275541 -1.085295 -0.084526
6.320583 49.744669 44.289615 173.465380 -34.702036 -7.861408 5.379553 18.502605 6.577547 0.661669 2.365158 0.617536 1.035646 3.855442 1.015295 4.930355 16.081453 4.852522 -1.687555 15.787859 1.589777 -3.640935 -6.388268 3.522145 -0.886749 -2.084049 -3.678224 4.657013 -3.942682 2.033533 89.705716 -78.783827 -101.739655 4.507712 3.610082 15.367108 -9.297524 -0.265213 -0.535910 6.225305 -3.196734 -2.420191 -111.522770 -67.525147 129.403820 6.224491 8.627978 -34.986673 2.305707 -45.799249 9.767928 -109.933739 84.910549 -97.879844 -1.409988 -12.141501 -2.417023 -0.096182 0.852769 -0.042369 -11.032690 -49.638215 16.893480 -152.949572 80.406419 -159.546851 1.954106 -15.064399 6.696393 -0.282243 -1.074197 -0.078909
6.324784 49.755693 44.288683 173.524577 -34.687859 -7.870087 5.409041 18.517945 6.593168 0.622394 2.349706 0.609189 1.035418 3.852724 1.013988 4.930578 16.076725 4.848288 -1.694663 15.812288 1.588689 -3.691393 -6.382034 3.552464 -0.847200 -2.078901 -3.708799 4.573946 -3.935161 2.030065 89.947344 -78.143337 -102.134620 5.167790 4.486672 16.777622 -9.309648 -0.214343 -0.517622 6.384889 -3.311885 -2.508622 -110.996699 -67.030214 129.014281 4.811913 9.492442 -37.763825 2.191877 -45.780094 9.759232 -110.040043 84.913772 -97.999922 -1.404293 -12.228477 -2.446989 -0.061193 0.894291 -0.047058 -11.052120 -49.654278 16.881087 -152.943796 80.413760 -159.560696 1.933564 -15.073198 6.702416 -0.299826 -1.054662 -0.063910
6.329673 49.766541 44.286869 173.558200 -34.682021 -7.868487 5.419568 18.531059 6.592773 0.622338 2.348537 0.608654 1.035343 3.850876 1.013132 4.920548 16.068852 4.844908 -1.701876 15.833385 1.590917 -3.735280 -6.373945 3.573918 -0.857992 -2.084908 -3.709428 4.556314 -3.920695 1.980114 90.233432 -77.482580 -102.578424 5.912592 5.334536 18.337490 -9.322713 -0.204980 -0.515618 6.573008 -3.399857 -2.571658 -110.541517 -66.551964 128.643500 3.375802 10.241060 -40.655376 2.121114 -45.767495 9.748513 -110.180041 84.905043 -98.127079 -1.478671 -12.299360 -2.454433 -0.114095 0.924990 -0.070446 -11.041653 -49.667681 16.878915 -152.856818 80.407933 -159.493335 1.901692 -15.069137 6.731242 -0.300635 -1.052474 -0.069403
